<svg xmlns="http://www.w3.org/2000/svg" width="100%" height="100%" viewBox="0 0 50 50">
    <g fill="none" fill-rule="evenodd">
        <g>
            <g>
                <g>
                    <g transform="translate(-1107 -575) translate(697 247) translate(96 108) translate(314 220)">
                        <circle cx="25" cy="25" r="25" fill="#D0021B"/>
                        <path fill="#FFF" d="M33.531 31.14c.313.344.469.75.469 1.22 0 .468-.156.859-.469 1.171-.312.313-.703.469-1.172.469-.468 0-.875-.156-1.218-.469L25 27.391l-6.14 6.14c-.344.313-.735.469-1.172.469-.438 0-.829-.156-1.172-.469-.344-.312-.516-.703-.516-1.172 0-.468.172-.875.516-1.218L22.609 25l-6.093-6.14c-.344-.344-.516-.75-.516-1.22 0-.468.172-.859.516-1.171.343-.313.734-.469 1.172-.469.437 0 .828.156 1.171.469L25 22.609l6.14-6.14c.344-.313.75-.469 1.22-.469.468 0 .859.156 1.171.469.313.312.469.703.469 1.172 0 .468-.156.875-.469 1.218L27.391 25l6.14 6.14z"/>
                    </g>
                </g>
            </g>
        </g>
    </g>
</svg>
